<svg version="1.1" xmlns="http://www.w3.org/2000/svg" xmlns:xlink="http://www.w3.org/1999/xlink" viewBox="0 0 172 172"><g fill="none" fill-rule="nonzero" stroke="none" stroke-width="1" stroke-linecap="butt" stroke-linejoin="miter" stroke-miterlimit="10" stroke-dasharray="" stroke-dashoffset="0" font-family="none" font-weight="none" font-size="none" text-anchor="none" style="mix-blend-mode: normal"><path d="M0,172v-172h172v172z" fill="none"></path><g fill="#000000"><path d="M13.115,24.08c-3.80281,0.17469 -6.73219,3.39969 -6.5575,7.2025c0.17469,3.80281 3.39969,6.73219 7.2025,6.5575h10.32c2.48594,0.04031 4.78375,-1.26312 6.03344,-3.41312c1.26313,-2.13656 1.26313,-4.79719 0,-6.93375c-1.24969,-2.15 -3.5475,-3.45344 -6.03344,-3.41313h-10.32c-0.215,-0.01344 -0.43,-0.01344 -0.645,0zM44.075,24.08c-3.80281,0.17469 -6.73219,3.39969 -6.5575,7.2025c0.17469,3.80281 3.39969,6.73219 7.2025,6.5575h75.68c2.48594,0.04031 4.78375,-1.26312 6.03344,-3.41312c1.26313,-2.13656 1.26313,-4.79719 0,-6.93375c-1.24969,-2.15 -3.5475,-3.45344 -6.03344,-3.41313h-75.68c-0.215,-0.01344 -0.43,-0.01344 -0.645,0zM141.04,24.08c-3.80281,0 -6.88,3.07719 -6.88,6.88c0,3.80281 3.07719,6.88 6.88,6.88c3.80281,0 6.88,-3.07719 6.88,-6.88c0,-3.80281 -3.07719,-6.88 -6.88,-6.88zM158.24,24.08c-3.80281,0 -6.88,3.07719 -6.88,6.88c0,3.80281 3.07719,6.88 6.88,6.88c3.80281,0 6.88,-3.07719 6.88,-6.88c0,-3.80281 -3.07719,-6.88 -6.88,-6.88zM13.115,51.6c-3.80281,0.17469 -6.73219,3.39969 -6.5575,7.2025c0.17469,3.80281 3.39969,6.73219 7.2025,6.5575h10.32c2.48594,0.04031 4.78375,-1.26312 6.03344,-3.41312c1.26313,-2.13656 1.26313,-4.79719 0,-6.93375c-1.24969,-2.15 -3.5475,-3.45344 -6.03344,-3.41313h-10.32c-0.215,-0.01344 -0.43,-0.01344 -0.645,0zM44.075,51.6c-3.80281,0.17469 -6.73219,3.39969 -6.5575,7.2025c0.17469,3.80281 3.39969,6.73219 7.2025,6.5575h75.68c2.48594,0.04031 4.78375,-1.26312 6.03344,-3.41312c1.26313,-2.13656 1.26313,-4.79719 0,-6.93375c-1.24969,-2.15 -3.5475,-3.45344 -6.03344,-3.41313h-75.68c-0.215,-0.01344 -0.43,-0.01344 -0.645,0zM158.24,51.6c-3.80281,0 -6.88,3.07719 -6.88,6.88c0,3.80281 3.07719,6.88 6.88,6.88c3.80281,0 6.88,-3.07719 6.88,-6.88c0,-3.80281 -3.07719,-6.88 -6.88,-6.88zM13.115,79.12c-3.80281,0.17469 -6.73219,3.39969 -6.5575,7.2025c0.17469,3.80281 3.39969,6.73219 7.2025,6.5575h10.32c2.48594,0.04031 4.78375,-1.26312 6.03344,-3.41312c1.26313,-2.13656 1.26313,-4.79719 0,-6.93375c-1.24969,-2.15 -3.5475,-3.45344 -6.03344,-3.41313h-10.32c-0.215,-0.01344 -0.43,-0.01344 -0.645,0zM44.075,79.12c-3.80281,0.17469 -6.73219,3.39969 -6.5575,7.2025c0.17469,3.80281 3.39969,6.73219 7.2025,6.5575h75.68c2.48594,0.04031 4.78375,-1.26312 6.03344,-3.41312c1.26313,-2.13656 1.26313,-4.79719 0,-6.93375c-1.24969,-2.15 -3.5475,-3.45344 -6.03344,-3.41313h-75.68c-0.215,-0.01344 -0.43,-0.01344 -0.645,0zM158.24,79.12c-3.80281,0 -6.88,3.07719 -6.88,6.88c0,3.80281 3.07719,6.88 6.88,6.88c3.80281,0 6.88,-3.07719 6.88,-6.88c0,-3.80281 -3.07719,-6.88 -6.88,-6.88zM13.115,106.64c-3.80281,0.17469 -6.73219,3.39969 -6.5575,7.2025c0.17469,3.80281 3.39969,6.73219 7.2025,6.5575h10.32c2.48594,0.04031 4.78375,-1.26312 6.03344,-3.41312c1.26313,-2.13656 1.26313,-4.79719 0,-6.93375c-1.24969,-2.15 -3.5475,-3.45344 -6.03344,-3.41313h-10.32c-0.215,-0.01344 -0.43,-0.01344 -0.645,0zM44.075,106.64c-3.80281,0.17469 -6.73219,3.39969 -6.5575,7.2025c0.17469,3.80281 3.39969,6.73219 7.2025,6.5575h75.68c2.48594,0.04031 4.78375,-1.26312 6.03344,-3.41312c1.26313,-2.13656 1.26313,-4.79719 0,-6.93375c-1.24969,-2.15 -3.5475,-3.45344 -6.03344,-3.41313h-75.68c-0.215,-0.01344 -0.43,-0.01344 -0.645,0zM141.04,106.64c-3.80281,0 -6.88,3.07719 -6.88,6.88c0,3.80281 3.07719,6.88 6.88,6.88c3.80281,0 6.88,-3.07719 6.88,-6.88c0,-3.80281 -3.07719,-6.88 -6.88,-6.88zM158.24,106.64c-3.80281,0 -6.88,3.07719 -6.88,6.88c0,3.80281 3.07719,6.88 6.88,6.88c3.80281,0 6.88,-3.07719 6.88,-6.88c0,-3.80281 -3.07719,-6.88 -6.88,-6.88zM13.115,134.16c-3.80281,0.17469 -6.73219,3.39969 -6.5575,7.2025c0.17469,3.80281 3.39969,6.73219 7.2025,6.5575h10.32c2.48594,0.04031 4.78375,-1.26312 6.03344,-3.41312c1.26313,-2.13656 1.26313,-4.79719 0,-6.93375c-1.24969,-2.15 -3.5475,-3.45344 -6.03344,-3.41313h-10.32c-0.215,-0.01344 -0.43,-0.01344 -0.645,0zM44.075,134.16c-3.80281,0.17469 -6.73219,3.39969 -6.5575,7.2025c0.17469,3.80281 3.39969,6.73219 7.2025,6.5575h75.68c2.48594,0.04031 4.78375,-1.26312 6.03344,-3.41312c1.26313,-2.13656 1.26313,-4.79719 0,-6.93375c-1.24969,-2.15 -3.5475,-3.45344 -6.03344,-3.41313h-75.68c-0.215,-0.01344 -0.43,-0.01344 -0.645,0zM158.24,134.16c-3.80281,0 -6.88,3.07719 -6.88,6.88c0,3.80281 3.07719,6.88 6.88,6.88c3.80281,0 6.88,-3.07719 6.88,-6.88c0,-3.80281 -3.07719,-6.88 -6.88,-6.88z"></path></g></g></svg>