<svg version="1.1" xmlns="http://www.w3.org/2000/svg" xmlns:xlink="http://www.w3.org/1999/xlink" viewBox="0 0 172 172"><g fill="none" fill-rule="nonzero" stroke="none" stroke-width="1" stroke-linecap="butt" stroke-linejoin="miter" stroke-miterlimit="10" stroke-dasharray="" stroke-dashoffset="0" font-family="none" font-weight="none" font-size="none" text-anchor="none" style="mix-blend-mode: normal"><path d="M0,172v-172h172v172z" fill="none"></path><g id="original-icon" fill="#000000"><path d="M20.64,17.2c-7.56531,0 -13.76,6.19469 -13.76,13.76v75.68c0,6.71875 4.89125,12.26844 11.2875,13.4375l4.515,25.4775c1.31688,7.44438 8.46563,12.49688 15.91,11.18l115.1325,-20.5325c7.44438,-1.31687 12.49688,-8.46562 11.18,-15.91l-13.2225,-74.4975c-0.05375,-0.33594 -0.16125,-0.65844 -0.3225,-0.9675v-13.8675c0,-7.56531 -6.19469,-13.76 -13.76,-13.76zM20.64,24.08h116.96c3.84313,0 6.88,3.03688 6.88,6.88v10.32h-130.72v-10.32c0,-3.84312 3.03688,-6.88 6.88,-6.88zM13.76,58.48h130.72v48.16c0,3.84313 -3.03687,6.88 -6.88,6.88h-116.96c-3.84312,0 -6.88,-3.03687 -6.88,-6.88zM30.96,68.8v6.88h55.04v-6.88zM151.36,83.3125l6.7725,38.1625c0.67188,3.77594 -1.80062,7.28313 -5.59,7.955l-115.1325,20.5325c-3.77594,0.67188 -7.28312,-1.80062 -7.955,-5.59l-4.3,-23.9725h112.445c7.56531,0 13.76,-6.19469 13.76,-13.76z"></path></g></g></svg>